<svg width="512" height="512" viewBox="0 0 512 512" fill="none" xmlns="http://www.w3.org/2000/svg" xmlns:xlink="http://www.w3.org/1999/xlink" class=""><rect id="r4" width="512" height="512" x="0" y="0" rx="" fill="url(#r5)" stroke="#FFFFFF" stroke-width="0" stroke-opacity="100%" paint-order="stroke"></rect><clipPath id="clip"><use xlink:href="#r4"></use></clipPath><defs><radialGradient id="r5" cx="50%" cy="50%" r="100%" fx="50%" fy="50%" gradientUnits="objectBoundingBox"><stop stop-color="#5C5C5C"></stop><stop offset="1" stop-color="#0F1015"></stop></radialGradient><radialGradient id="r6" cx="0" cy="0" r="1" gradientUnits="userSpaceOnUse" gradientTransform="translate(256) rotate(90) scale(512)"><stop stop-color="white"></stop><stop offset="1" stop-color="white" stop-opacity="0"></stop></radialGradient></defs><svg xmlns="http://www.w3.org/2000/svg" width="352" height="352" viewBox="0 0 24 24" x="80" y="80" alignment-baseline="middle" style="color: rgb(255, 255, 255);"><path fill="currentColor" d="M10.25 4a.75.75 0 0 0-1.303-.507l-5.5 6A.75.75 0 0 0 4 10.75h16a.75.75 0 0 0 0-1.5h-9.75z"></path><path fill="currentColor" d="M13.75 20v-5.25H4a.75.75 0 0 1 0-1.5h16a.75.75 0 0 1 .553 1.257l-5.5 6A.75.75 0 0 1 13.75 20" opacity=".5"></path></svg></svg>